<?xml version="1.0" encoding="UTF-8" standalone="no"?>
<svg width="26px" height="29px" viewBox="0 0 26 29" version="1.1" xmlns="http://www.w3.org/2000/svg" xmlns:xlink="http://www.w3.org/1999/xlink" xmlns:sketch="http://www.bohemiancoding.com/sketch/ns">
    <!-- Generator: Sketch 3.3.3 (12072) - http://www.bohemiancoding.com/sketch -->
    <title>Imported Layers</title>
    <desc>Created with Sketch.</desc>
    <defs></defs>
    <g id="Page-1" stroke="none" stroke-width="1" fill="none" fill-rule="evenodd" sketch:type="MSPage">
        <g id="Proveedor---Entrega-del-presupuesto" sketch:type="MSArtboardGroup" transform="translate(-628.000000, -558.000000)" fill="#E0E0E0">
            <g id="Dialog" sketch:type="MSLayerGroup" transform="translate(274.000000, 521.000000)">
                <g id="Imported-Layers" transform="translate(354.000000, 37.000000)" sketch:type="MSShapeGroup">
                    <path d="M25.6461463,28.8915652 L24.3702439,28.8915652 L24.1977561,28.5347391 C23.9269756,27.9761739 23.1463415,27.5386522 22.420878,27.5386522 C21.7442439,27.5386522 21.1392683,27.9206957 20.8418537,28.5347391 L20.6687317,28.8915652 L19.3864878,28.8915652 L19.2133659,28.5347391 C18.9165854,27.9206957 18.3109756,27.5386522 17.6343415,27.5386522 C16.9577073,27.5386522 16.3527317,27.9206957 16.0553171,28.5347391 L15.8821951,28.8915652 L14.5999512,28.8915652 L14.4268293,28.5347391 C14.1300488,27.9206957 13.5250732,27.5386522 12.848439,27.5386522 C12.1711707,27.5386522 11.5661951,27.9206957 11.2694146,28.5347391 L11.0962927,28.8915652 L9.81404878,28.8915652 L9.64092683,28.5347391 C9.3435122,27.9206957 8.73853659,27.5386522 8.06190244,27.5386522 C7.38526829,27.5386522 6.78029268,27.9206957 6.48287805,28.5347391 L6.3097561,28.8915652 L5.0275122,28.8915652 L4.85439024,28.5347391 C4.55760976,27.9206957 3.952,27.5386522 3.27536585,27.5386522 C2.59873171,27.5386522 1.9937561,27.9206957 1.69634146,28.5347391 L1.52321951,28.8915652 L0.280292683,28.8915652 L0.280292683,0.522 L1.5517561,0.522 L1.72995122,0.858652174 C2.03560976,1.4355 2.62790244,1.79358696 3.27536585,1.79358696 C3.92346341,1.79358696 4.51512195,1.4355 4.82078049,0.858652174 L4.99897561,0.522 L6.33829268,0.522 L6.5164878,0.858652174 C6.82214634,1.4355 7.41443902,1.79358696 8.06190244,1.79358696 C8.70936585,1.79358696 9.30165854,1.4355 9.60731707,0.858652174 L9.7855122,0.522 L11.1241951,0.522 L11.3030244,0.858652174 C11.6086829,1.4355 12.2003415,1.79358696 12.848439,1.79358696 C13.4959024,1.79358696 14.087561,1.4355 14.3932195,0.858652174 L14.5714146,0.522 L15.9107317,0.522 L16.089561,0.858652174 C16.3945854,1.4355 16.986878,1.79358696 17.6343415,1.79358696 C18.282439,1.79358696 18.8740976,1.4355 19.1797561,0.858652174 L19.3579512,0.522 L20.6972683,0.522 L20.8754634,0.858652174 C21.181122,1.4355 21.7734146,1.79358696 22.420878,1.79358696 C23.1203415,1.79358696 23.8857561,1.38317391 24.1635122,0.858652174 L24.3423415,0.522 L25.6461463,0.522 L25.6461463,28.8915652 L25.6461463,28.8915652 Z M17.6343415,26.2777826 C18.5906341,26.2777826 19.4625854,26.7165652 20.0276098,27.4541739 C20.5932683,26.7165652 21.4652195,26.2777826 22.420878,26.2777826 C23.1159024,26.2777826 23.816,26.5141957 24.3772195,26.9031739 L24.3772195,2.43852174 C23.8198049,2.82371739 23.1216098,3.05445652 22.420878,3.05445652 C21.4721951,3.05445652 20.5939024,2.6118913 20.0276098,1.87365217 C19.4613171,2.6118913 18.5830244,3.05445652 17.6343415,3.05445652 C16.6856585,3.05445652 15.8073659,2.6118913 15.2410732,1.87365217 C14.6754146,2.6118913 13.7964878,3.05445652 12.848439,3.05445652 C11.8997561,3.05445652 11.0208293,2.6118913 10.4551707,1.87365217 C9.88887805,2.6118913 9.00995122,3.05445652 8.06190244,3.05445652 C7.11321951,3.05445652 6.23492683,2.6118913 5.66863415,1.87365217 C5.10297561,2.6118913 4.22404878,3.05445652 3.27536585,3.05445652 C2.63107317,3.05445652 2.0197561,2.85082609 1.5162439,2.48895652 L1.5162439,26.8388696 C2.01785366,26.4795217 2.62726829,26.2777826 3.27536585,26.2777826 C4.23165854,26.2777826 5.10360976,26.7165652 5.66863415,27.4541739 C6.23429268,26.7165652 7.1062439,26.2777826 8.06190244,26.2777826 C9.01756098,26.2777826 9.8895122,26.7165652 10.4551707,27.4541739 C11.0201951,26.7165652 11.8921463,26.2777826 12.848439,26.2777826 C13.8040976,26.2777826 14.6760488,26.7165652 15.2410732,27.4541739 C15.8067317,26.7165652 16.6786829,26.2777826 17.6343415,26.2777826 L17.6343415,26.2777826 Z" id="Fill-1"></path>
                    <path d="M4.24053659,7.45678261 L14.230878,7.45678261 L14.230878,8.71765217 L4.24053659,8.71765217 L4.24053659,7.45678261 Z" id="Fill-2"></path>
                    <path d="M17.4022439,7.45678261 L21.8412683,7.45678261 L21.8412683,8.71765217 L17.4022439,8.71765217 L17.4022439,7.45678261 Z" id="Fill-3"></path>
                    <path d="M4.24053659,10.6089565 L14.230878,10.6089565 L14.230878,11.8698261 L4.24053659,11.8698261 L4.24053659,10.6089565 Z" id="Fill-4"></path>
                    <path d="M17.4022439,10.6089565 L21.8412683,10.6089565 L21.8412683,11.8698261 L17.4022439,11.8698261 L17.4022439,10.6089565 Z" id="Fill-5"></path>
                    <path d="M4.24053659,13.7611304 L14.230878,13.7611304 L14.230878,15.022 L4.24053659,15.022 L4.24053659,13.7611304 Z" id="Fill-6"></path>
                    <path d="M17.4022439,13.7611304 L21.8412683,13.7611304 L21.8412683,15.022 L17.4022439,15.022 L17.4022439,13.7611304 Z" id="Fill-7"></path>
                    <path d="M17.4022439,19.4350435 L21.8412683,19.4350435 L21.8412683,20.695913 L17.4022439,20.695913 L17.4022439,19.4350435 Z" id="Fill-8"></path>
                </g>
            </g>
        </g>
    </g>
</svg>