<?xml version="1.0" encoding="UTF-8" standalone="no"?>
<svg width="19px" height="20px" viewBox="0 0 19 20" version="1.1" xmlns="http://www.w3.org/2000/svg" xmlns:xlink="http://www.w3.org/1999/xlink" xmlns:sketch="http://www.bohemiancoding.com/sketch/ns">
    <!-- Generator: Sketch 3.3.3 (12072) - http://www.bohemiancoding.com/sketch -->
    <title>Imported Layers</title>
    <desc>Created with Sketch.</desc>
    <defs></defs>
    <g id="Page-1" stroke="none" stroke-width="1" fill="none" fill-rule="evenodd" sketch:type="MSPage">
        <g id="Empresa---Nuevo-proveedor-(notas)" sketch:type="MSArtboardGroup" transform="translate(-321.000000, -622.000000)" fill="#4A90E2">
            <g id="formulario" sketch:type="MSLayerGroup" transform="translate(98.500000, 444.000000)">
                <g id="fecha-alta" transform="translate(1.000000, 148.000000)" sketch:type="MSShapeGroup">
                    <g id="input" transform="translate(0.000000, 23.000000)">
                        <g id="icon-calendar" transform="translate(219.000000, 4.000000)">
                            <path d="M11,19 L17,19 L17,13 L11,13 L11,19 Z M13,15 L15,15 L15,17 L13,17 L13,15 Z M19,5 L18,5 L18,3 L16,3 L16,5 L8,5 L8,3 L6,3 L6,5 L5,5 C3.895,5 3.01,5.896 3.01,7 L3,21 C3,22.105 3.895,23 5,23 L19,23 C20.104,23 21,22.105 21,21 L21,7 C21,5.896 20.104,5 19,5 L19,5 Z M5,10 L19,10 L19,21 L5,21 L5,10 Z" id="Imported-Layers"></path>
                        </g>
                    </g>
                </g>
            </g>
        </g>
    </g>
</svg>