<?xml version="1.0" encoding="UTF-8" standalone="no"?>
<svg width="37px" height="36px" viewBox="0 0 37 36" version="1.1" xmlns="http://www.w3.org/2000/svg" xmlns:xlink="http://www.w3.org/1999/xlink" xmlns:sketch="http://www.bohemiancoding.com/sketch/ns">
    <!-- Generator: Sketch 3.3.3 (12072) - http://www.bohemiancoding.com/sketch -->
    <title>Imported Layers</title>
    <desc>Created with Sketch.</desc>
    <defs></defs>
    <g id="Page-1" stroke="none" stroke-width="1" fill="none" fill-rule="evenodd" sketch:type="MSPage">
        <g id="Empresa---Ficha-del-proveedor-(vista-previa)" sketch:type="MSArtboardGroup" transform="translate(-61.000000, -1699.000000)" fill="#2C5A84">
            <g id="contact-data" sketch:type="MSLayerGroup" transform="translate(-2.000000, 1656.000000)">
                <g transform="translate(0.750000, 0.000000)" id="dato-0" sketch:type="MSShapeGroup">
                    <g transform="translate(63.000000, 41.000000)">
                        <path d="M27.3900909,28.364375 C26.3798788,27.97175 25.4145152,27.65675 24.5635152,27.38 C23.6598182,27.08525 22.8794545,26.831 22.5004848,26.62175 C21.7627273,26.217875 21.4342121,25.725125 21.4342121,25.0265 L21.4342121,22.905875 C21.666303,22.7045 21.8658788,22.505375 22.0217273,22.3175 C22.5756061,21.64925 23.0196061,19.8605 23.3021515,18.425 C23.4434242,18.221375 23.5409697,17.967125 23.5869394,17.681375 L23.8560303,15.989375 C23.9289091,15.53375 23.7024242,14.8925 23.4187576,14.479625 C23.4680909,14.17025 23.5454545,13.647125 23.553303,13.36925 C23.5678788,12.807875 22.9792424,11.39375 22.8940303,11.2115 C22.6327879,10.652375 21.3680606,9.597125 21.3534848,9.585875 C21.179697,9.441875 20.8354848,9.281 20.0921212,8.949125 C19.7815455,8.81075 19.3117576,8.600375 19.2467273,8.56325 L19.0953636,8.42375 C18.8206667,8.172875 17.9842424,7.412375 17.7734545,7.090625 C17.6882424,6.960125 17.5974242,6.600125 17.538,6.361625 C17.4135455,5.86775 17.3238485,5.511125 16.9729091,5.371625 L16.6556061,5.2715 L16.4134242,5.427875 C15.8102121,5.817125 15.8247879,7.713875 15.8270303,7.7915 C15.6554848,7.61375 15.3493939,7.304375 14.9367879,7.445 C14.5174545,7.590125 14.4692424,8.05025 14.4468182,8.27075 C14.4187879,8.541875 14.3672121,8.796125 14.3313333,8.921 C13.6115152,9.419375 13.0912727,9.817625 12.8883333,10.139375 C12.8322727,10.229375 12.7459394,10.3385 12.6506364,10.46225 C12.3927576,10.7975 12.0720909,11.21375 11.9252121,11.648 C11.713303,12.278 11.6673333,13.60775 11.6673333,13.9025 C11.6673333,14.137625 11.7166667,14.353625 11.7727273,14.5235 C11.5619394,14.8385 11.248,15.420125 11.3388182,15.98825 L11.6067879,17.6825 C11.670697,18.07625 11.8299091,18.40475 12.0586364,18.623 C12.3389394,20 12.7706061,21.679625 13.298697,22.3175 C13.4085758,22.45025 13.5464848,22.59425 13.705697,22.741625 L13.705697,25.0265 C13.705697,25.725125 13.3771818,26.217875 12.638303,26.622875 C12.2604545,26.831 11.4800909,27.08525 10.5763939,27.38 C9.72539394,27.65675 8.7600303,27.97175 7.74981818,28.364375 C7.11184848,28.611875 6.79790909,28.96625 6.4660303,29.340875 L6.26757576,29.561375 L7.08942424,30.32525 L7.30245455,30.087875 C7.5939697,29.7605 7.76887879,29.563625 8.15457576,29.412875 C9.13675758,29.0315 10.085303,28.722125 10.9228485,28.449875 C11.9196061,28.12475 12.7078182,27.86825 13.1776061,27.608375 C14.2719091,27.00875 14.8269091,26.139125 14.8269091,25.0265 L14.8201818,22.6235 L14.7484242,22.16225 L14.5925758,22.02725 C14.4199091,21.87875 14.2719091,21.7325 14.1609091,21.598625 C13.9355455,21.32525 13.5251818,20.27 13.1159394,18.19325 L13.0755758,17.933375 L12.8333939,17.809625 C12.8120909,17.791625 12.7448182,17.69825 12.7145455,17.503625 L12.4454545,15.8105 C12.4207879,15.656375 12.5788788,15.334625 12.712303,15.1355 L13.3166364,15.05 L12.9040303,14.324375 C12.8715152,14.267 12.7885455,14.0825 12.7885455,13.9025 C12.7885455,13.460375 12.8580606,12.3905 12.987,12.009125 C13.0733333,11.75375 13.3312121,11.419625 13.5375152,11.15075 C13.6574848,10.994375 13.7651212,10.85375 13.8368788,10.74125 C13.8884545,10.6625 14.1093333,10.43975 15.0769394,9.770375 C15.1655152,9.7085 15.3269697,9.596 15.4514242,9.0785 C15.6902424,9.344 16.0254848,9.610625 16.4145455,9.347375 C16.7789394,9.11 16.9403939,8.332625 16.9482424,7.862375 C17.2453636,8.2415 17.7891515,8.753375 18.3419091,9.25625 L18.4775758,9.381125 C18.6233333,9.518375 18.8800909,9.639875 19.6369091,9.977375 C19.9934545,10.137125 20.5338788,10.377875 20.6403939,10.45325 C21.0552424,10.7975 21.7739394,11.48375 21.8782121,11.6885 C22.0665758,12.090125 22.4253636,13.109375 22.4320909,13.338875 C22.4253636,13.5695 22.3311818,14.191625 22.274,14.528 L22.1876667,15.026375 L22.4903939,15.113 C22.6204545,15.31775 22.7751818,15.64625 22.7482727,15.811625 L22.4791818,17.50475 C22.4489091,17.699375 22.3816364,17.784875 22.3625758,17.80625 L22.2560606,17.92325 L22.2269091,18.0785 C21.8131818,20.223875 21.3927273,21.31625 21.1595152,21.598625 C21.0025455,21.7865 20.7670909,22.00925 20.4957576,22.224125 L20.2165758,22.44575 L20.2961818,22.79225 L20.313,25.0265 C20.313,26.139125 20.868,27.007625 21.9611818,27.608375 C22.4332121,27.86825 23.220303,28.12475 24.2170606,28.449875 C25.0546061,28.722125 26.0042727,29.0315 26.9853333,29.412875 C27.3699091,29.563625 27.5459394,29.7605 27.8352121,30.087875 L28.0493636,30.32525 L28.8723333,29.561375 L28.6738788,29.340875 C28.342,28.96625 28.0280606,28.613 27.3900909,28.364375 L27.3900909,28.364375 Z M17.6523636,2 C7.91912121,2 0,9.94475 0,19.710875 C0,29.475875 7.91912121,37.420625 17.6523636,37.420625 C27.3844848,37.420625 35.3013636,29.475875 35.3013636,19.710875 C35.3013636,9.94475 27.3844848,2 17.6523636,2 L17.6523636,2 Z M17.6523636,36.295625 C8.53690909,36.295625 1.12121212,28.856 1.12121212,19.710875 C1.12121212,10.56575 8.53690909,3.125 17.6523636,3.125 C26.7655758,3.125 34.1801515,10.56575 34.1801515,19.710875 C34.1801515,28.856 26.7655758,36.295625 17.6523636,36.295625 L17.6523636,36.295625 Z" id="Imported-Layers"></path>
                    </g>
                </g>
            </g>
        </g>
    </g>
</svg>