<?xml version="1.0" encoding="UTF-8" standalone="no"?>
<svg width="34px" height="24px" viewBox="0 0 34 24" version="1.1" xmlns="http://www.w3.org/2000/svg" xmlns:xlink="http://www.w3.org/1999/xlink" xmlns:sketch="http://www.bohemiancoding.com/sketch/ns">
    <!-- Generator: Sketch 3.3.3 (12072) - http://www.bohemiancoding.com/sketch -->
    <title>Imported Layers</title>
    <desc>Created with Sketch.</desc>
    <defs></defs>
    <g id="Page-1" stroke="none" stroke-width="1" fill="none" fill-rule="evenodd" sketch:type="MSPage">
        <g id="Empresa---Ficha-del-proveedor-(vista-previa)" sketch:type="MSArtboardGroup" transform="translate(-673.000000, -1705.000000)" fill="#346089">
            <g id="contact-data" sketch:type="MSLayerGroup" transform="translate(-2.000000, 1656.000000)">
                <g transform="translate(0.750000, 0.000000)" id="dato-3" sketch:type="MSShapeGroup">
                    <g transform="translate(674.250000, 49.000000)">
                        <path d="M2.88555556,21.425 L10.1655556,12.1015625 L11.8556667,14.009375 L22.0927778,14.009375 L23.7261111,12.159375 L31.0294444,21.5125 L31.9472222,20.7898437 L24.5132222,11.2679688 L31.9246667,2.87578125 L31.052,2.09765625 L21.5677778,12.8375 L12.3791111,12.8375 L2.86144444,2.096875 L1.99033333,2.87578125 L9.37688889,11.2117187 L1.967,20.7015625 L2.88555556,21.425 L2.88555556,21.425 Z M0,23.55 L33.9142222,23.55 L33.9142222,0 L0,0 L0,23.55 Z M1.16666667,1.17109375 L32.7475556,1.17109375 L32.7475556,22.3773438 L1.16666667,22.3773438 L1.16666667,1.17109375 Z" id="Imported-Layers"></path>
                    </g>
                </g>
            </g>
        </g>
    </g>
</svg>