<?xml version="1.0" encoding="UTF-8" standalone="no"?>
<svg width="27px" height="35px" viewBox="0 0 27 35" version="1.1" xmlns="http://www.w3.org/2000/svg" xmlns:xlink="http://www.w3.org/1999/xlink" xmlns:sketch="http://www.bohemiancoding.com/sketch/ns">
    <!-- Generator: Sketch 3.3.3 (12072) - http://www.bohemiancoding.com/sketch -->
    <title>Imported Layers</title>
    <desc>Created with Sketch.</desc>
    <defs></defs>
    <g id="Page-1" stroke="none" stroke-width="1" fill="none" fill-rule="evenodd" sketch:type="MSPage">
        <g id="Empresa---Ficha-del-proveedor-(vista-previa)" sketch:type="MSArtboardGroup" transform="translate(-993.000000, -1696.000000)" stroke="#EFF9FF" fill="#346089">
            <g id="contact-data" sketch:type="MSLayerGroup" transform="translate(-2.000000, 1656.000000)">
                <g transform="translate(0.750000, 0.000000)" id="dato-1" sketch:type="MSShapeGroup">
                    <g transform="translate(995.000000, 41.000000)">
                        <path d="M12.6665949,33 L11.8709045,32.2577486 C11.3869278,31.8055316 0,21.0825441 0,12.7958459 C0,5.74031425 5.68233128,0 12.6665949,0 C19.6508586,0 25.332018,5.74031425 25.332018,12.7958459 C25.332018,21.0825441 13.9450902,31.8055316 13.4611135,32.2577486 L12.6665949,33 L12.6665949,33 Z M12.6665949,2.36762807 C6.97371694,2.36762807 2.34371263,7.04606113 2.34371263,12.7958459 C2.34371263,18.8924882 10.121323,27.1886569 12.6665949,29.74096 C15.2118668,27.1886569 22.9883054,18.8924882 22.9883054,12.7958459 C22.9883054,7.04606113 18.358301,2.36762807 12.6665949,2.36762807 L12.6665949,2.36762807 Z M12.6665949,17.544124 C9.97484096,17.544124 7.78464151,15.3315755 7.78464151,12.6123547 C7.78464151,9.89195006 9.97484096,7.67940164 12.6665949,7.67940164 C15.3583489,7.67940164 17.5485483,9.89195006 17.5485483,12.6123547 C17.5485483,15.3315755 15.3583489,17.544124 12.6665949,17.544124 L12.6665949,17.544124 Z M12.6665949,10.0470297 C11.2662266,10.0470297 10.1283541,11.1976969 10.1283541,12.6123547 C10.1283541,14.0258287 11.2662266,15.1764959 12.6665949,15.1764959 C14.0657914,15.1764959 15.2048357,14.0258287 15.2048357,12.6123547 C15.2048357,11.1976969 14.0657914,10.0470297 12.6665949,10.0470297 L12.6665949,10.0470297 Z" id="Imported-Layers"></path>
                    </g>
                </g>
            </g>
        </g>
    </g>
</svg>