<?xml version="1.0" encoding="UTF-8" standalone="no"?>
<svg width="32px" height="32px" viewBox="0 0 32 32" version="1.1" xmlns="http://www.w3.org/2000/svg" xmlns:xlink="http://www.w3.org/1999/xlink" xmlns:sketch="http://www.bohemiancoding.com/sketch/ns">
    <!-- Generator: Sketch 3.3.3 (12072) - http://www.bohemiancoding.com/sketch -->
    <title>Imported Layers</title>
    <desc>Created with Sketch.</desc>
    <defs></defs>
    <g id="Page-1" stroke="none" stroke-width="1" fill="none" fill-rule="evenodd" sketch:type="MSPage">
        <g id="Empresa---Ficha-del-proveedor-(vista-previa)" sketch:type="MSArtboardGroup" transform="translate(-360.000000, -1702.000000)" fill="#346089">
            <g id="contact-data" sketch:type="MSLayerGroup" transform="translate(-2.000000, 1656.000000)">
                <g transform="translate(0.750000, 0.000000)" id="dato-2" sketch:type="MSShapeGroup">
                    <g transform="translate(361.250000, 44.000000)">
                        <path d="M26.8225454,33.2267896 L26.8218343,33.2267896 C23.4689454,33.2267896 16.6671676,32.0890118 8.77952315,24.4673229 C1.16210093,16.5853673 -0.650521293,8.83638956 0.187878707,4.20634511 L0.248323152,3.87070067 L0.549123152,3.70785623 C3.38645649,2.170434 7.54930093,1.82696734 9.57312315,2.07158956 L9.87321204,2.10785623 L10.0559676,2.349634 C12.0101009,4.948034 13.3043232,9.02767845 13.1336565,12.0506118 L13.1194343,12.3009229 L12.951612,12.4865229 C12.305212,13.2033229 10.8147232,14.3439451 9.7807676,14.9917673 C10.3119676,16.2454562 11.5478787,17.8475896 13.4657454,19.7647451 C15.3821898,21.6819007 16.9843232,22.9178118 18.238012,23.4490118 C18.8858343,22.4157673 20.0257454,20.9245673 20.7432565,20.2781673 L20.9288565,20.1110562 L21.1791676,20.0961229 C24.209212,19.930434 28.3059232,21.2388784 30.8794343,23.1745229 L31.1219232,23.3565673 L31.1581898,23.6573673 C31.3978343,25.6363896 31.0429898,29.8717673 29.5219232,32.6813673 L29.3597898,32.9814562 L29.0234343,33.0426118 C28.3464565,33.1649229 27.6061898,33.2267896 26.8225454,33.2267896 L26.8225454,33.2267896 Z M1.5311676,4.80154511 C0.906812041,9.120834 2.7471676,16.1786118 9.78503426,23.4618118 C17.2950787,30.7187007 23.6837009,31.8045673 26.8218343,31.8045673 L26.8225454,31.8045673 C27.390012,31.8045673 27.9290343,31.7690118 28.4289454,31.6979007 C29.6335676,29.236034 29.8966787,25.7807451 29.7750787,24.128834 C27.5400565,22.5537229 24.0790787,21.434434 21.5176565,21.5062562 C20.7766787,22.2586118 19.5813009,23.8906118 19.1859232,24.6458118 L18.9171232,25.1599451 L18.359612,24.9999451 C16.785212,24.5491007 14.8552565,23.1652784 12.4602343,20.7702562 C10.0645009,18.3745229 8.68067871,16.4452784 8.22983426,14.8701673 L8.07054537,14.3133673 L8.58325649,14.0445673 C9.33987871,13.6484784 10.9718787,12.4531007 11.7235232,11.712834 C11.7853898,9.15141178 10.6917009,5.71034511 9.10023426,3.45470067 C7.33241204,3.31958956 3.94325649,3.62110067 1.5311676,4.80154511 L1.5311676,4.80154511 Z" id="Imported-Layers"></path>
                    </g>
                </g>
            </g>
        </g>
    </g>
</svg>