<?xml version="1.0" encoding="UTF-8" standalone="no"?>
<svg width="30px" height="20px" viewBox="0 0 30 20" version="1.1" xmlns="http://www.w3.org/2000/svg" xmlns:xlink="http://www.w3.org/1999/xlink" xmlns:sketch="http://www.bohemiancoding.com/sketch/ns">
    <!-- Generator: Sketch 3.3.3 (12072) - http://www.bohemiancoding.com/sketch -->
    <title>icon-upload</title>
    <desc>Created with Sketch.</desc>
    <defs></defs>
    <g id="Page-1" stroke="none" stroke-width="1" fill="none" fill-rule="evenodd" sketch:type="MSPage">
        <g id="Empresa---Nuevo-proveedor-(datos-administrativos)" sketch:type="MSArtboardGroup" transform="translate(-396.000000, -782.000000)">
            <g id="formulario" sketch:type="MSLayerGroup" transform="translate(59.500000, 444.000000)">
                <g id="documentos-adjuntos" transform="translate(40.000000, 268.000000)" sketch:type="MSShapeGroup">
                    <g id="upload-documents" transform="translate(0.500000, 42.000000)">
                        <g id="icon-upload" transform="translate(311.000000, 38.000000) scale(1, -1) translate(-311.000000, -38.000000) translate(296.000000, 23.000000)">
                            <path d="M30,0 L0,0 L0,30 L30,30 L30,0 Z" id="bounds"></path>
                            <path d="M24.25,17.5 C23.375,21.75 19.625,25 15,25 C11.375,25 8.25,23 6.75,20 C2.875,19.5 0,16.375 0,12.5 C0,8.375 3.375,5 7.5,5 L23.75,5 C27.25,5 30,7.75 30,11.25 C30,14.5 27.375,17.25 24.25,17.5 L24.25,17.5 Z M17.5,13.75 L17.5,8.75 L12.5,8.75 L12.5,13.75 L8.75,13.75 L15,20 L21.25,13.75 L17.5,13.75 L17.5,13.75 Z" id="Shape" fill="#4C7E9C"></path>
                        </g>
                    </g>
                </g>
            </g>
        </g>
    </g>
</svg>