<?xml version="1.0" encoding="UTF-8" standalone="no"?>
<svg width="31px" height="38px" viewBox="0 0 31 38" version="1.1" xmlns="http://www.w3.org/2000/svg" xmlns:xlink="http://www.w3.org/1999/xlink" xmlns:sketch="http://www.bohemiancoding.com/sketch/ns">
    <!-- Generator: Sketch 3.3.3 (12072) - http://www.bohemiancoding.com/sketch -->
    <title>document icon</title>
    <desc>Created with Sketch.</desc>
    <defs></defs>
    <g id="Page-1" stroke="none" stroke-width="1" fill="none" fill-rule="evenodd" sketch:type="MSPage">
        <g id="Proveedor---Ficha-proyecto" sketch:type="MSArtboardGroup" transform="translate(-120.000000, -1707.000000)" fill="#427695">
            <g id="download-documents" sketch:type="MSLayerGroup" transform="translate(60.000000, 1653.000000)">
                <g id="document-1" transform="translate(60.000000, 54.000000)" sketch:type="MSShapeGroup">
                    <path d="M29.807,8.594 L22.108,0.791 C21.611,0.288 20.921,0 20.215,0 L2.659,0 C1.193,0 0,1.193 0,2.658 L0,34.589 C0,36.055 1.193,37.248 2.659,37.248 L27.915,37.248 C29.38,37.248 30.573,36.055 30.573,34.589 L30.573,10.461 C30.573,9.757 30.301,9.094 29.807,8.594 L29.807,8.594 Z M29.073,34.589 C29.073,35.228 28.553,35.748 27.915,35.748 L2.659,35.748 C2.02,35.748 1.5,35.228 1.5,34.589 L1.5,2.658 C1.5,2.02 2.02,1.5 2.659,1.5 L20.215,1.5 C20.524,1.5 20.824,1.626 21.041,1.845 L28.74,9.648 C28.955,9.865 29.073,10.154 29.073,10.461 L29.073,34.589 L29.073,34.589 Z M20.767,3.57 L19.267,3.57 L19.267,11.07 L27.006,11.07 L27.006,9.57 L20.767,9.57 L20.767,3.57 L20.767,3.57 Z" id="document-icon"></path>
                </g>
            </g>
        </g>
    </g>
</svg>