<?xml version="1.0" encoding="UTF-8" standalone="no"?>
<svg width="35px" height="33px" viewBox="0 0 35 33" version="1.1" xmlns="http://www.w3.org/2000/svg" xmlns:xlink="http://www.w3.org/1999/xlink" xmlns:sketch="http://www.bohemiancoding.com/sketch/ns">
    <!-- Generator: Sketch 3.3.3 (12072) - http://www.bohemiancoding.com/sketch -->
    <title>Imported Layers</title>
    <desc>Created with Sketch.</desc>
    <defs></defs>
    <g id="Page-1" stroke="none" stroke-width="1" fill="none" fill-rule="evenodd" sketch:type="MSPage">
        <g id="Proveedor---Ficha-proyecto" sketch:type="MSArtboardGroup" transform="translate(-952.000000, -1711.000000)" fill="#427695">
            <g id="download-documents" sketch:type="MSLayerGroup" transform="translate(60.000000, 1653.000000)">
                <g id="document-1-copy-2" transform="translate(892.000000, 54.000000)" sketch:type="MSShapeGroup">
                    <path d="M12.012,17.65 C14.054,17.65 15.714,15.989 15.714,13.947 C15.714,11.906 14.054,10.245 12.012,10.245 C9.97,10.245 8.309,11.906 8.309,13.947 C8.309,15.989 9.97,17.65 12.012,17.65 L12.012,17.65 Z M12.012,11.745 C13.226,11.745 14.214,12.733 14.214,13.947 C14.214,15.162 13.226,16.15 12.012,16.15 C10.797,16.15 9.809,15.162 9.809,13.947 C9.809,12.733 10.797,11.745 12.012,11.745 L12.012,11.745 Z M24.433,17.466 L19.617,22.587 L18.311,22.043 L15.449,25.771 L11.675,22.446 L6.569,27.663 L2.931,31.814 L4.059,32.802 L7.669,28.682 L11.751,24.512 L15.661,27.958 L18.799,23.871 L19.999,24.371 L24.036,20.077 L27.057,26.284 L29.622,30.103 L30.867,29.264 L28.383,25.581 L24.433,17.466 L24.433,17.466 Z M32.2,4 L2.742,4 C1.23,4 0,5.23 0,6.741 L0,34.216 C0,35.728 1.23,36.957 2.742,36.957 L32.2,36.957 C33.711,36.957 34.941,35.728 34.941,34.216 L34.941,6.741 C34.941,5.23 33.711,4 32.2,4 L32.2,4 Z M33.441,34.216 C33.441,34.9 32.884,35.457 32.2,35.457 L2.742,35.457 C2.057,35.457 1.5,34.9 1.5,34.216 L1.5,6.741 C1.5,6.057 2.057,5.5 2.742,5.5 L32.2,5.5 C32.884,5.5 33.441,6.057 33.441,6.741 L33.441,34.216 L33.441,34.216 Z" id="Imported-Layers"></path>
                </g>
            </g>
        </g>
    </g>
</svg>