<?xml version="1.0" encoding="UTF-8" standalone="no"?>
<svg width="20px" height="21px" viewBox="0 0 20 21" version="1.1" xmlns="http://www.w3.org/2000/svg" xmlns:xlink="http://www.w3.org/1999/xlink" xmlns:sketch="http://www.bohemiancoding.com/sketch/ns">
    <!-- Generator: Sketch 3.3.3 (12072) - http://www.bohemiancoding.com/sketch -->
    <title>opciones</title>
    <desc>Created with Sketch.</desc>
    <defs></defs>
    <g id="Page-1" stroke="none" stroke-width="1" fill="none" fill-rule="evenodd" sketch:type="MSPage">
        <g id="Empresa---Lista-de-proveedores" sketch:type="MSArtboardGroup" transform="translate(-1102.000000, -20.000000)" fill="#5A5A5A">
            <g id="Top-menu" sketch:type="MSLayerGroup">
                <g id="opciones" transform="translate(1102.000000, 20.000000)" sketch:type="MSShapeGroup">
                    <g id="apps">
                        <path d="M0.0888888889,5.25 L5.06666667,5.25 L5.06666667,0.276315789 L0.0888888889,0.276315789 L0.0888888889,5.25 L0.0888888889,5.25 Z M7.55555556,20.1710526 L12.5333333,20.1710526 L12.5333333,15.1973684 L7.55555556,15.1973684 L7.55555556,20.1710526 L7.55555556,20.1710526 Z M0.0888888889,20.1710526 L5.06666667,20.1710526 L5.06666667,15.1973684 L0.0888888889,15.1973684 L0.0888888889,20.1710526 L0.0888888889,20.1710526 Z M0.0888888889,12.7105263 L5.06666667,12.7105263 L5.06666667,7.73684211 L0.0888888889,7.73684211 L0.0888888889,12.7105263 L0.0888888889,12.7105263 Z M7.55555556,12.7105263 L12.5333333,12.7105263 L12.5333333,7.73684211 L7.55555556,7.73684211 L7.55555556,12.7105263 L7.55555556,12.7105263 Z M15.0222222,0.276315789 L15.0222222,5.25 L20,5.25 L20,0.276315789 L15.0222222,0.276315789 L15.0222222,0.276315789 Z M7.55555556,5.25 L12.5333333,5.25 L12.5333333,0.276315789 L7.55555556,0.276315789 L7.55555556,5.25 L7.55555556,5.25 Z M15.0222222,12.7105263 L20,12.7105263 L20,7.73684211 L15.0222222,7.73684211 L15.0222222,12.7105263 L15.0222222,12.7105263 Z M15.0222222,20.1710526 L20,20.1710526 L20,15.1973684 L15.0222222,15.1973684 L15.0222222,20.1710526 L15.0222222,20.1710526 Z" id="Shape"></path>
                    </g>
                </g>
            </g>
        </g>
    </g>
</svg>