<?xml version="1.0" encoding="UTF-8" standalone="no"?>
<svg width="22px" height="23px" viewBox="0 0 22 23" version="1.1" xmlns="http://www.w3.org/2000/svg" xmlns:xlink="http://www.w3.org/1999/xlink" xmlns:sketch="http://www.bohemiancoding.com/sketch/ns">
    <!-- Generator: Sketch 3.3.3 (12072) - http://www.bohemiancoding.com/sketch -->
    <title>icon search</title>
    <desc>Created with Sketch.</desc>
    <defs></defs>
    <g id="Page-2" stroke="none" stroke-width="1" fill="none" fill-rule="evenodd" sketch:type="MSPage">
        <g id="Empresa---Seleccion-de-proveedores" sketch:type="MSArtboardGroup" transform="translate(-100.000000, -1219.000000)">
            <g id="tabla-proveedores" sketch:type="MSLayerGroup" transform="translate(60.000000, 559.000000)">
                <g id="añadir-manualmente" sketch:type="MSShapeGroup">
                    <g>
                        <g transform="translate(0.000000, 635.000000)">
                            <g id="text-field" transform="translate(41.000000, 0.000000)">
                                <g id="icon-search" transform="translate(0.000000, 26.000000)">
                                    <path d="M0.260346021,7.48156667 C0.260346021,11.5317333 3.50096886,14.8269667 7.483391,14.8269667 C9.14885813,14.8269667 10.6804152,14.2449333 11.9036678,13.2784667 L19.1304498,20.6276667 C19.1914879,20.6897333 19.2712111,20.7201333 19.3509343,20.7201333 C19.4306574,20.7201333 19.5103806,20.6897333 19.5707958,20.6276667 C19.692872,20.5041667 19.692872,20.3034 19.5707958,20.1799 L12.3795156,12.8668 C13.806436,11.5241333 14.7070588,9.6102 14.7070588,7.48156667 C14.7070588,3.43203333 11.466436,0.1368 7.483391,0.1368 C3.50096886,0.1368 0.260346021,3.43203333 0.260346021,7.48156667 L0.260346021,7.48156667 Z M0.883183391,7.48156667 C0.883183391,3.781 3.84415225,0.770133333 7.483391,0.770133333 C11.1232526,0.770133333 14.0842215,3.781 14.0842215,7.48156667 C14.0842215,11.1827667 11.1232526,14.1936333 7.483391,14.1936333 C3.84415225,14.1936333 0.883183391,11.1827667 0.883183391,7.48156667 L0.883183391,7.48156667 Z" id="Fill-1" fill="#2C2D2D"></path>
                                    <path d="M0.260346021,7.48156667 C0.260346021,11.5317333 3.50096886,14.8269667 7.483391,14.8269667 C9.14885813,14.8269667 10.6804152,14.2449333 11.9036678,13.2784667 L19.1304498,20.6276667 C19.1914879,20.6897333 19.2712111,20.7201333 19.3509343,20.7201333 C19.4306574,20.7201333 19.5103806,20.6897333 19.5707958,20.6276667 C19.692872,20.5041667 19.692872,20.3034 19.5707958,20.1799 L12.3795156,12.8668 C13.806436,11.5241333 14.7070588,9.6102 14.7070588,7.48156667 C14.7070588,3.43203333 11.466436,0.1368 7.483391,0.1368 C3.50096886,0.1368 0.260346021,3.43203333 0.260346021,7.48156667 L0.260346021,7.48156667 Z M0.883183391,7.48156667 C0.883183391,3.781 3.84415225,0.770133333 7.483391,0.770133333 C11.1232526,0.770133333 14.0842215,3.781 14.0842215,7.48156667 C14.0842215,11.1827667 11.1232526,14.1936333 7.483391,14.1936333 C3.84415225,14.1936333 0.883183391,11.1827667 0.883183391,7.48156667 L0.883183391,7.48156667 Z" id="Stroke-2" stroke="#4A90E2"></path>
                                </g>
                            </g>
                        </g>
                    </g>
                </g>
            </g>
        </g>
    </g>
</svg>