<?xml version="1.0" encoding="UTF-8" standalone="no"?>
<svg width="14px" height="17px" viewBox="0 0 14 17" version="1.1" xmlns="http://www.w3.org/2000/svg" xmlns:xlink="http://www.w3.org/1999/xlink" xmlns:sketch="http://www.bohemiancoding.com/sketch/ns">
    <!-- Generator: Sketch 3.3.3 (12072) - http://www.bohemiancoding.com/sketch -->
    <title>Shape</title>
    <desc>Created with Sketch.</desc>
    <defs></defs>
    <g id="Page-2" stroke="none" stroke-width="1" fill="none" fill-rule="evenodd" sketch:type="MSPage">
        <g id="Empresa---Formulario-creación-proyecto" sketch:type="MSArtboardGroup" transform="translate(-1136.000000, -299.000000)" fill="#000000" opacity="0.539999962">
            <g id="breve-descripción" sketch:type="MSLayerGroup" transform="translate(59.000000, 267.500000)">
                <g id="style" transform="translate(985.000000, 29.000000)" sketch:type="MSShapeGroup">
                    <g id="underline" transform="translate(87.915789, 0.000000)">
                        <path d="M10.8978947,15.5833333 C13.92,15.5833333 16.3926316,13.1083333 16.3926316,10.0833333 L16.3926316,2.75 L14.1031579,2.75 L14.1031579,10.0833333 C14.1031579,11.825 12.6378947,13.2916667 10.8978947,13.2916667 C9.15789474,13.2916667 7.69263158,11.825 7.69263158,10.0833333 L7.69263158,2.75 L5.40315789,2.75 L5.40315789,10.0833333 C5.40315789,13.1083333 7.87578947,15.5833333 10.8978947,15.5833333 L10.8978947,15.5833333 Z M4.48736842,17.4166667 L4.48736842,19.25 L17.3084211,19.25 L17.3084211,17.4166667 L4.48736842,17.4166667 L4.48736842,17.4166667 Z" id="Shape"></path>
                    </g>
                </g>
            </g>
        </g>
    </g>
</svg>