<?xml version="1.0" encoding="UTF-8" standalone="no"?>
<svg width="26px" height="38px" viewBox="0 0 26 38" version="1.1" xmlns="http://www.w3.org/2000/svg" xmlns:xlink="http://www.w3.org/1999/xlink" xmlns:sketch="http://www.bohemiancoding.com/sketch/ns">
    <!-- Generator: Sketch 3.3.3 (12072) - http://www.bohemiancoding.com/sketch -->
    <title>logo lock</title>
    <desc>Created with Sketch.</desc>
    <defs></defs>
    <g id="Page-1" stroke="none" stroke-width="1" fill="none" fill-rule="evenodd" sketch:type="MSPage">
        <g id="Proveedor---Vista-previa" sketch:type="MSArtboardGroup" transform="translate(-628.000000, -555.000000)" fill="#E0E0E0">
            <g id="Dialog" sketch:type="MSLayerGroup" transform="translate(274.000000, 521.000000)">
                <g id="logo-lock" transform="translate(354.000000, 34.000000)" sketch:type="MSShapeGroup">
                    <path d="M12.7303429,37.1222 C8.24348571,37.1222 3.93565714,35.50568 0.272628571,32.4482 L0,32.2202 L0,17.64796 C0,16.0626 0.666342857,14.59124 1.84154286,13.5546 L1.84154286,11.14084 C1.84154286,4.99776 6.72657143,0 12.7310857,0 C18.7356,0 23.6198857,4.99776 23.6198857,11.14084 L23.6198857,13.55536 C24.7950857,14.592 25.4614286,16.06336 25.4614286,17.64872 L25.4614286,32.22172 L25.1880571,32.44972 C21.5250286,35.50644 17.2172,37.1222 12.7303429,37.1222 L12.7303429,37.1222 Z M1.48571429,31.49516 C4.81965714,34.18328 8.70034286,35.6022 12.7303429,35.6022 C16.7603429,35.6022 20.6417714,34.18328 23.9757143,31.49592 L23.9757143,17.64872 C23.9757143,16.41752 23.4126286,15.27904 22.4313143,14.52664 L22.1341714,14.29864 L22.1341714,11.14084 C22.1341714,5.83528 17.9162286,1.52 12.7310857,1.52 C7.54594286,1.52 3.32725714,5.83528 3.32725714,11.14084 L3.32725714,14.29864 L3.02937143,14.52664 C2.04805714,15.27904 1.48571429,16.41676 1.48571429,17.64796 L1.48571429,31.49516 L1.48571429,31.49516 Z M15.1973714,32.29316 L10.2633143,32.29316 L10.2633143,26.20708 C9.46994286,25.4866 9.00565714,24.4492 9.00565714,23.36012 C9.00565714,21.25872 10.6770857,19.54948 12.7303429,19.54948 C14.7843429,19.54948 16.4550286,21.25872 16.4550286,23.36012 C16.4550286,24.4492 15.9914857,25.4866 15.1973714,26.20708 L15.1973714,32.29316 L15.1973714,32.29316 Z M11.7490286,30.77316 L13.7116571,30.77316 L13.7116571,25.44936 L14.0236571,25.22288 C14.6157143,24.7912 14.9693143,24.09428 14.9693143,23.36012 C14.9693143,22.097 13.9649714,21.06948 12.7303429,21.06948 C11.4957143,21.06948 10.4913714,22.097 10.4913714,23.36012 C10.4913714,24.09428 10.8449714,24.7912 11.4370286,25.22288 L11.7490286,25.44936 L11.7490286,30.77316 L11.7490286,30.77316 Z M16.3220571,17.19804 L15.7270286,17.16764 C13.6492571,17.062 11.8240571,17.06124 9.73291429,17.16764 L9.13937143,17.19804 L8.9804,16.61132 C8.70405714,15.58608 8.04588571,14.7402 7.1292,14.22872 L6.74217143,14.01288 L6.74217143,11.14084 C6.74217143,7.76264 9.42834286,5.01372 12.7310857,5.01372 C16.0330857,5.01372 18.7192571,7.76264 18.7192571,11.14084 L18.7192571,14.01288 L18.3322286,14.22872 C17.4148,14.74096 16.7573714,15.58684 16.4802857,16.61132 L16.3220571,17.19804 L16.3220571,17.19804 Z M12.7303429,15.56936 C13.5549143,15.56936 14.3809714,15.58684 15.2419429,15.62408 C15.6430857,14.61328 16.3406286,13.73852 17.2335429,13.1328 L17.2335429,11.14084 C17.2335429,8.60016 15.2137143,6.53372 12.7310857,6.53372 C10.2477143,6.53372 8.22788571,8.60016 8.22788571,11.14084 L8.22788571,13.1328 C9.12005714,13.73852 9.81834286,14.61252 10.2187429,15.62332 C11.0819429,15.58684 11.9087429,15.56936 12.7303429,15.56936 L12.7303429,15.56936 Z" id="Page-1"></path>
                </g>
            </g>
        </g>
    </g>
</svg>